<?xml version="1.0" encoding="UTF-8"?>
<svg version="1.1" xmlns="http://www.w3.org/2000/svg" width="150" height="50">
<path d="M0 0 C49.5 0 99 0 150 0 C150 16.5 150 33 150 50 C100.5 50 51 50 0 50 C0 33.5 0 17 0 0 Z " fill="#020300" transform="translate(0,0)"/>
<path d="M0 0 C2.35479253 2.20287043 2.68060052 3.64407307 2.9375 6.8125 C3.5975 6.8125 4.2575 6.8125 4.9375 6.8125 C4.6075 4.1725 4.2775 1.5325 3.9375 -1.1875 C6.5775 -1.1875 9.2175 -1.1875 11.9375 -1.1875 C11.9375 -0.5275 11.9375 0.1325 11.9375 0.8125 C12.9275 0.8125 13.9175 0.8125 14.9375 0.8125 C14.9375 0.1525 14.9375 -0.5075 14.9375 -1.1875 C19.48555635 -1.36585515 22.8169254 -1.18535435 26.9375 0.8125 C26.9375 0.1525 26.9375 -0.5075 26.9375 -1.1875 C32.9921875 -1.3828125 32.9921875 -1.3828125 34.9375 -1.1875 C36.9375 0.8125 36.9375 0.8125 37.16796875 2.6953125 C37.07000527 7.80722504 36.67368199 12.75124879 35.9375 17.8125 C33.60455225 17.85491723 31.27047433 17.85342937 28.9375 17.8125 C27.9375 16.8125 27.9375 16.8125 27.83984375 14.08984375 C27.85144531 12.98769531 27.86304688 11.88554687 27.875 10.75 C27.88402344 9.64527344 27.89304688 8.54054688 27.90234375 7.40234375 C27.91394531 6.54769531 27.92554688 5.69304688 27.9375 4.8125 C27.2775 5.1425 26.6175 5.4725 25.9375 5.8125 C25.46851037 8.6284849 25.46851037 8.6284849 25.3125 11.875 C25.23773438 12.97972656 25.16296875 14.08445312 25.0859375 15.22265625 C25.03695312 16.07730469 24.98796875 16.93195312 24.9375 17.8125 C22.2975 17.8125 19.6575 17.8125 16.9375 17.8125 C16.09101026 15.27303077 15.91678331 13.90687602 16.5 11.25 C17.27260992 8.56444866 17.27260992 8.56444866 14.9375 5.8125 C14.6075 9.7725 14.2775 13.7325 13.9375 17.8125 C10.9675 17.8125 7.9975 17.8125 4.9375 17.8125 C4.6075 15.1725 4.2775 12.5325 3.9375 9.8125 C3.525 10.76125 3.1125 11.71 2.6875 12.6875 C0.83177693 16.0012912 0.34130012 16.55339518 -3.0625 17.8125 C-5.53515625 18.04296875 -5.53515625 18.04296875 -8.125 18 C-8.98222656 17.99355469 -9.83945313 17.98710938 -10.72265625 17.98046875 C-13.0625 17.8125 -13.0625 17.8125 -16.0625 16.8125 C-18.40514206 13.56884176 -19.49839129 10.76126098 -20.0625 6.8125 C-19.0725 6.8125 -18.0825 6.8125 -17.0625 6.8125 C-17.3925 4.8325 -17.7225 2.8525 -18.0625 0.8125 C-12.46432987 -2.17319074 -5.84592162 -2.26678594 0 0 Z " fill="#C1F305" transform="translate(95.0625,16.1875)"/>
<path d="M0 0 C0 0.33 0 0.66 0 1 C2.475 1.495 2.475 1.495 5 2 C4.34 2.33 3.68 2.66 3 3 C3.495 3.99 3.495 3.99 4 5 C4.039992 6.99960012 4.04346799 9.00047242 4 11 C6.05270463 9.15811388 6.05270463 9.15811388 7 7 C9.97 7 12.94 7 16 7 C16.495 8.98 16.495 8.98 17 11 C15.68 11.99 14.36 12.98 13 14 C13.53115106 18.51478398 15.36620292 21.34666857 18 25 C16.21597604 26.78402396 13.84121603 26.13232529 11.46875 26.13671875 C10.7365625 26.13285156 10.004375 26.12898438 9.25 26.125 C8.53328125 26.12886719 7.8165625 26.13273437 7.078125 26.13671875 C3.259888 26.12969993 -0.28937214 25.92035258 -4 25 C-4.33 22.36 -4.66 19.72 -5 17 C-5.33 17 -5.66 17 -6 17 C-6.268125 17.969375 -6.53625 18.93875 -6.8125 19.9375 C-7.204375 20.948125 -7.59625 21.95875 -8 23 C-8.99 23.33 -9.98 23.66 -11 24 C-11 24.66 -11 25.32 -11 26 C-12.93742341 26.02703381 -14.87495479 26.04641125 -16.8125 26.0625 C-17.89144531 26.07410156 -18.97039063 26.08570312 -20.08203125 26.09765625 C-23 26 -23 26 -26 25 C-26.94921875 22.93359375 -26.94921875 22.93359375 -27.6875 20.4375 C-27.93886719 19.61121094 -28.19023437 18.78492187 -28.44921875 17.93359375 C-28.63097656 17.29550781 -28.81273438 16.65742188 -29 16 C-28.34 15.67 -27.68 15.34 -27 15 C-27 13.02 -27 11.04 -27 9 C-26.01 9 -25.02 9 -24 9 C-24 8.34 -24 7.68 -24 7 C-22.22925083 6.97294271 -20.45838289 6.95357805 -18.6875 6.9375 C-17.70136719 6.92589844 -16.71523438 6.91429687 -15.69921875 6.90234375 C-13 7 -13 7 -10 8 C-10 8.66 -10 9.32 -10 10 C-9.34 10 -8.68 10 -8 10 C-7.67 11.65 -7.34 13.3 -7 15 C-6.34 15 -5.68 15 -5 15 C-5 11.04 -5 7.08 -5 3 C-7.475 2.505 -7.475 2.505 -10 2 C-6.3558226 -0.4294516 -4.28758728 -0.16179575 0 0 Z " fill="#BBEC05" transform="translate(58,8)"/>
<path d="M0 0 C2.5 1.5 2.5 1.5 4 3 C3.34 3 2.68 3 2 3 C2.33 3.66 2.66 4.32 3 5 C3.039992 6.99960012 3.04346799 9.00047242 3 11 C3.7115625 10.01 3.7115625 10.01 4.4375 9 C8.14875563 6.10341024 11.45397207 6.65030554 16 7 C15.67 8.65 15.34 10.3 15 12 C14.01 12 13.02 12 12 12 C11.67 13.65 11.34 15.3 11 17 C11.66 17 12.32 17 13 17 C14.32 19.64 15.64 22.28 17 25 C15.41062444 26.58937556 13.76100154 26.12981143 11.5625 26.1328125 C10.22058594 26.13474609 10.22058594 26.13474609 8.8515625 26.13671875 C7.91054688 26.13285156 6.96953125 26.12898438 6 26.125 C4.58847656 26.13080078 4.58847656 26.13080078 3.1484375 26.13671875 C2.25382813 26.13542969 1.35921875 26.13414063 0.4375 26.1328125 C-0.38878906 26.13168457 -1.21507812 26.13055664 -2.06640625 26.12939453 C-4 26 -4 26 -5 25 C-5.07282533 23.02206391 -5.0836801 21.04166299 -5.0625 19.0625 C-5.05347656 17.98097656 -5.04445313 16.89945313 -5.03515625 15.78515625 C-5.02355469 14.86605469 -5.01195312 13.94695313 -5 13 C-5 12.34 -5 11.68 -5 11 C-5 9 -5 7 -5 5 C-5.66 5 -6.32 5 -7 5 C-7.33 4.34 -7.66 3.68 -8 3 C-8.99 2.34 -9.98 1.68 -11 1 C-7.30624122 -0.23125293 -3.84512599 -0.46420032 0 0 Z " fill="#B7E705" transform="translate(12,8)"/>
<path d="M0 0 C2.05078125 0.03255208 4.1015625 0.06510417 6.15234375 0.09765625 C6.15234375 0.75765625 6.15234375 1.41765625 6.15234375 2.09765625 C6.81234375 2.09765625 7.47234375 2.09765625 8.15234375 2.09765625 C7.57649943 4.48329702 6.9300678 6.76448409 6.15234375 9.09765625 C6.08431408 10.82560977 6.0673873 12.5560099 6.08984375 14.28515625 C6.10337891 15.63673828 6.10337891 15.63673828 6.1171875 17.015625 C6.12878906 17.70269531 6.14039063 18.38976562 6.15234375 19.09765625 C3.18234375 19.09765625 0.21234375 19.09765625 -2.84765625 19.09765625 C-3.21667675 7.57601616 -3.21667675 7.57601616 -0.84765625 2.09765625 C-1.50765625 1.76765625 -2.16765625 1.43765625 -2.84765625 1.09765625 C-1.84765625 0.09765625 -1.84765625 0.09765625 0 0 Z " fill="#BCEC05" transform="translate(136.84765625,14.90234375)"/>
<path d="M0 0 C0.07427838 3.34252724 0.06546953 5.8035914 -1 9 C-0.40206327 11.35188447 0.25881795 13.68925595 1 16 C-0.32 16.33 -1.64 16.66 -3 17 C-4.23921302 14.02588876 -5.30058404 11.14737182 -6 8 C-6.66 8 -7.32 8 -8 8 C-7.8125 5.6875 -7.8125 5.6875 -7 3 C-2.96551724 0 -2.96551724 0 0 0 Z " fill="#171D00" transform="translate(31,17)"/>
<path d="M0 0 C0.64677737 3.09015853 1.12010358 5.45286146 0.4375 8.5625 C-0.11171814 11.62242963 0.66337976 13.2481348 2 16 C0.68 16.33 -0.64 16.66 -2 17 C-2.268125 16.443125 -2.53625 15.88625 -2.8125 15.3125 C-3.98723915 12.91191954 -3.98723915 12.91191954 -5.6875 10.5 C-7 8 -7 8 -6.9375 5.9375 C-5.47363459 2.91217815 -3.55982237 0 0 0 Z " fill="#131800" transform="translate(77,17)"/>
<path d="M0 0 C2.64 0 5.28 0 8 0 C8 1.98 8 3.96 8 6 C5.36 6 2.72 6 0 6 C-1.24546405 3.50907189 -0.7767578 2.58919267 0 0 Z " fill="#C0F205" transform="translate(135,7)"/>
<path d="M0 0 C0.66 0 1.32 0 2 0 C3.16063604 4.25566547 2.76173392 7.6835078 2 12 C1.01 12.33 0.02 12.66 -1 13 C-2.53617912 8.90352234 -1.69045256 5.21176063 -1 1 C-0.67 0.67 -0.34 0.34 0 0 Z " fill="#252F00" transform="translate(121,21)"/>
<path d="M0 0 C2 1 2 1 2.6875 2.5625 C3.14931685 6.16467146 2.5382496 9.41166932 2 13 C1.01 13 0.02 13 -1 13 C-2.53617912 8.90352234 -1.69045256 5.21176063 -1 1 C-0.67 0.67 -0.34 0.34 0 0 Z " fill="#171E00" transform="translate(110,21)"/>
<path d="M0 0 C0.66 0 1.32 0 2 0 C2 0.66 2 1.32 2 2 C2.99 2.33 3.98 2.66 5 3 C4.01 3 3.02 3 2 3 C2 4.32 2 5.64 2 7 C0.68 7 -0.64 7 -2 7 C-2.33 5.35 -2.66 3.7 -3 2 C-2.01 2 -1.02 2 0 2 C0 1.34 0 0.68 0 0 Z " fill="#3F5001" transform="translate(87,21)"/>
<path d="M0 0 C0.33 0.99 0.66 1.98 1 3 C1.66 3 2.32 3 3 3 C3 3.66 3 4.32 3 5 C3.66 5.33 4.32 5.66 5 6 C4.67 8.64 4.34 11.28 4 14 C2.23537317 10.91190305 2 9.76687864 2 6 C1.34 6.99 0.68 7.98 0 9 C-1.125 3.375 -1.125 3.375 0 0 Z " fill="#6F8C03" transform="translate(97,20)"/>
<path d="M0 0 C0.66 0.33 1.32 0.66 2 1 C2 1.66 2 2.32 2 3 C2.99 3.33 3.98 3.66 5 4 C4.01 4.66 3.02 5.32 2 6 C2 6.66 2 7.32 2 8 C1.01 8 0.02 8 -1 8 C-1.33 6.35 -1.66 4.7 -2 3 C-1.34 3 -0.68 3 0 3 C0 2.01 0 1.02 0 0 Z " fill="#364401" transform="translate(40,20)"/>
<path d="M0 0 C1.67542976 0.28604898 3.34385343 0.61781233 5 1 C5 2.98 5 4.96 5 7 C4.34 7 3.68 7 3 7 C2.67 5.35 2.34 3.7 2 2 C1.01 1.67 0.02 1.34 -1 1 C-0.67 0.67 -0.34 0.34 0 0 Z " fill="#0D1000" transform="translate(95,16)"/>
<path d="M0 0 C0.75 1.6875 0.75 1.6875 1 4 C-0.9375 6.75 -0.9375 6.75 -3 9 C-3 7.02 -3 5.04 -3 3 C-2.01 2.67 -1.02 2.34 0 2 C0 1.34 0 0.68 0 0 Z " fill="#2F3B01" transform="translate(135,17)"/>
</svg>
